<svg xmlns:inkscape="http://www.inkscape.org/namespaces/inkscape" xmlns:sodipodi="http://sodipodi.sourceforge.net/DTD/sodipodi-0.dtd" xmlns:dc="http://purl.org/dc/elements/1.1/" xmlns:cc="http://creativecommons.org/ns#" xmlns:rdf="http://www.w3.org/1999/02/22-rdf-syntax-ns#" xmlns:svg="http://www.w3.org/2000/svg" xmlns="http://www.w3.org/2000/svg" xmlns:xlink="http://www.w3.org/1999/xlink" version="1.1" x="0px" y="0px" viewBox="0 0 100 100" enable-background="new 0 0 100 100" xml:space="preserve"><path d="M19.78,33.975h-0.975l-0.162-3.468  v-0.173H18.48h-2.6V29.12h2.6h0.163v-0.173l0.162-3.295h0.975V33.975z"></path><path d="M10.312,36.172c-3.915,0-7.109,3.195-7.109,7.109v12.891  c0,3.914,3.195,7.148,7.109,7.148h69.57c3.914,0,7.109-3.234,7.109-7.148V43.281c0-3.915-3.195-7.109-7.109-7.109H10.312z   M10.312,40.156h69.57c1.768,0,3.125,1.357,3.125,3.125v12.891c0,1.768-1.357,3.125-3.125,3.125h-69.57  c-1.768,0-3.125-1.357-3.125-3.125V43.281C7.188,41.514,8.545,40.156,10.312,40.156z"></path><path d="M41.992,61.289v27.148c0,1.8-0.54,2.762-1.25,3.438  s-1.699,1.055-2.734,1.055s-2.024-0.379-2.734-1.055s-1.289-1.638-1.289-3.438v-10c0-3.045-1.051-5.646-3.008-6.914  s-3.822-1.094-4.961-1.094H5v5.977h21.016c1.139,0,1.745,0.174,1.719,0.156s0.273-0.08,0.273,1.875v10c0,3.2,1.21,5.949,3.125,7.773  s4.411,2.695,6.875,2.695s4.96-0.871,6.875-2.695s3.125-4.573,3.125-7.773V61.289H41.992z"></path><path d="M20.639,0.685  c-2.167,0-4.169,0.93-5.812,2.125c-1.643,1.195-3.188,2.542-3.188,4.875v18c-0.554,0-1,0.446-1,1v10h6v-10c0-0.554-0.446-1-1-1v-18  c0,0.333,0.456-0.82,1.562-1.625c1.107-0.805,2.604-1.375,3.438-1.375c0.949,0,2.772,0.594,4.125,1.438  c0.676,0.421,1.267,0.916,1.594,1.281c0.245,0.274,0.279,0.456,0.281,0.406v4.875h4v-5c0-1.307-0.633-2.209-1.312-2.969  c-0.679-0.76-1.509-1.39-2.438-1.969C25.033,1.59,22.853,0.685,20.639,0.685z"></path><path d="M66.407,25.651C57.346,25.651,50,32.998,50,42.059c0,9.062,7.346,16.408,16.407,16.408c9.062,0,16.408-7.346,16.408-16.408  C82.815,32.998,75.47,25.651,66.407,25.651z M66.407,53.779c-6.472,0-11.719-5.247-11.719-11.72c0-6.473,5.247-11.72,11.719-11.72  c6.473,0,11.72,5.247,11.72,11.72C78.127,48.532,72.88,53.779,66.407,53.779z"></path><path fill="#000000" d="M66.407,26.657c-8.489,0-15.371,6.896-15.371,15.402c0,8.507,6.882,15.401,15.371,15.401  s15.371-6.895,15.371-15.401C81.778,33.553,74.896,26.657,66.407,26.657z M68.563,41.253c-0.163,0-0.295-0.122-0.295-0.273  s0.132-0.273,0.295-0.273s0.295,0.123,0.295,0.273S68.727,41.253,68.563,41.253z"></path><path d="M33.48,48.379c-2.964-0.465-2.57-3.105-6.557-3.731c-2.057-0.323-3.521,0.389-9.292-0.225  c-0.13-0.014-0.301,0.459-0.184,0.501c0.163,0.06,9.257,1.271,9.48,1.347c0.164,0.054,0.101,0.555-0.101,0.561  c-0.181,0.007-9.154-1.101-9.461-1.121c-0.258-0.016-0.262,0.49-0.195,0.583c0,0,9.446,1.496,9.543,1.525  c0.16,0.048,0.082,0.589-0.094,0.595c-0.102,0.004-9.552-1.473-9.552-1.473c-0.091,0.069-0.242,0.552,0.007,0.616  c0.298,0.076,9.18,1.771,9.35,1.833c0.189,0.069,0.097,0.562-0.077,0.564c-0.234,0.003-9.262-1.63-9.437-1.623  c-0.123,0.004-0.106,0.507,0.021,0.533c5.683,1.183,6.858,2.31,8.916,2.632c3.986,0.627,4.419-2.005,7.384-1.541  c2.514,0.395,10.726,1.666,11.109,1.744c3.548,0.723,7.307,2.719,10.628,3.24c2.811,0.44,3.166-1.822,3.166-1.822l0,0  c0,0,0.003-0.021,0.008-0.06c0.008-0.037,0.011-0.06,0.011-0.06l0,0c0,0,0.355-2.262-2.455-2.704  c-3.323-0.521-7.51,0.227-11.11-0.172C44.201,50.079,35.993,48.773,33.48,48.379z"></path><path d="M15.008,48.956c-3.442,0.04-9.531,1.476-9.503,3.86l0,0c0.027,2.387,6.146,3.68,9.59,3.639  c4.069-0.047,4.086-3.109,7.112-3.145c2.564-0.029,10.946-0.141,11.339-0.131c3.65,0.109,7.72,1.355,11.112,1.316  c2.869-0.033,2.845-2.162,2.845-2.162l0,0c0,0-0.024-2.129-2.894-2.096c-3.393,0.039-7.433,1.377-11.079,1.572  c-0.394,0.02-8.774,0.102-11.34,0.131C19.165,51.973,19.078,48.909,15.008,48.956z"></path><path d="M32.805,30.522c-1.196,0-2.166,0.97-2.166,2.167s0.97,2.167,2.166,2.167c1.197,0,2.167-0.97,2.167-2.167  S34.002,30.522,32.805,30.522z M32.66,34.368c-0.945,0-1.711-0.752-1.711-1.68s0.766-1.68,1.711-1.68c0.944,0,1.71,0.752,1.71,1.68  S33.604,34.368,32.66,34.368z"></path><path d="M37.043,29.18c-0.992,0-1.797,0.805-1.797,1.797c0,0.992,0.805,1.797,1.797,1.797s1.797-0.805,1.797-1.797  C38.84,29.984,38.035,29.18,37.043,29.18z M36.922,32.37c-0.784,0-1.419-0.624-1.419-1.393c0-0.77,0.635-1.394,1.419-1.394  c0.783,0,1.418,0.624,1.418,1.394C38.34,31.746,37.705,32.37,36.922,32.37z"></path><path d="M34.972,26.744c-0.757,0-1.371,0.614-1.371,1.371c0,0.757,0.614,1.372,1.371,1.372c0.757,0,1.372-0.614,1.372-1.372  C36.343,27.358,35.729,26.744,34.972,26.744z M34.88,29.178c-0.599,0-1.083-0.476-1.083-1.063c0-0.587,0.484-1.063,1.083-1.063  c0.597,0,1.082,0.476,1.082,1.063C35.961,28.702,35.477,29.178,34.88,29.178z"></path><path d="M41.854,18.685c-0.757,0-1.371,0.613-1.371,1.371c0,0.757,0.614,1.371,1.371,1.371s1.372-0.614,1.372-1.371  C43.227,19.298,42.611,18.685,41.854,18.685z M41.763,21.118c-0.599,0-1.083-0.476-1.083-1.062c0-0.588,0.484-1.063,1.083-1.063  c0.597,0,1.081,0.476,1.081,1.063C42.844,20.643,42.36,21.118,41.763,21.118z"></path><path d="M66.408,31.394c-5.89,0-10.664,4.776-10.664,10.666s4.774,10.665,10.664,10.665c5.888,0,10.662-4.775,10.662-10.665  S72.296,31.394,66.408,31.394z M66.361,52.326c-5.688,0-10.307-4.617-10.307-10.311c0-5.693,4.618-10.307,10.307-10.307  c5.692,0,10.309,4.614,10.309,10.307C76.67,47.709,72.054,52.326,66.361,52.326z"></path></svg>