<svg xmlns="http://www.w3.org/2000/svg" xmlns:xlink="http://www.w3.org/1999/xlink" version="1.0" x="0px" y="0px" viewBox="0 0 100 125" enable-background="new 0 0 100 100" xml:space="preserve"><path fill="none" stroke="#000000" stroke-linecap="round" stroke-linejoin="round" stroke-miterlimit="10" d="M33.934,15.49  c-0.614,3.098,11.432,8.099,26.906,11.178c15.478,3.08,28.521,3.065,29.138-0.029l-0.838,4.204  c-0.611,3.094-13.656,3.109-29.134,0.029c-15.479-3.079-27.524-8.084-26.907-11.178L33.934,15.49z"/><path fill="none" stroke="#000000" stroke-linecap="round" stroke-linejoin="round" stroke-miterlimit="10" d="M65.819,31.904  c-4.527,0.603-9.966,0.956-15.821,0.956c-15.778,0-28.566-2.558-28.566-5.714l8.569,58.856c0,2.205,8.955,3.998,19.997,3.998  c11.05,0,20.002-1.793,20.002-3.998l7.701-52.881C74.248,32.988,70.203,32.584,65.819,31.904z"/><path fill="none" stroke="#000000" stroke-linecap="round" stroke-linejoin="round" stroke-miterlimit="10" d="M70.919,19.936  c0.309-1.547-0.698-3.054-2.245-3.362l-11.207-2.227c-1.547-0.309-3.054,0.694-3.358,2.241l-4.205-0.834  c0.768-3.869,4.531-6.383,8.397-5.615l11.211,2.23c3.866,0.771,6.379,4.535,5.611,8.4L70.919,19.936z"/><path fill="none" stroke="#000000" stroke-linecap="round" stroke-linejoin="round" stroke-miterlimit="10" d="M75.171,18.455  c0.099,0.753,0.11,1.529-0.048,2.315l-4.204-0.834c0.246-1.238-0.356-2.436-1.389-3.028c-2.039-0.507-4.159-0.988-6.364-1.429  l-0.191-0.037c-2.201-0.437-4.347-0.805-6.423-1.117c-1.188,0.15-2.197,1.029-2.443,2.263l-4.205-0.834  c0.154-0.786,0.463-1.499,0.845-2.157c-9.532-0.952-16.374-0.327-16.814,1.892c-0.614,3.098,11.432,8.099,26.906,11.178  c15.478,3.08,28.521,3.065,29.138-0.029C90.419,24.419,84.339,21.222,75.171,18.455z"/><path fill="none" stroke="#000000" stroke-linecap="round" stroke-linejoin="round" stroke-miterlimit="10" d="M50.002,41.429  v39.998V41.429z"/><path fill="none" stroke="#000000" stroke-linecap="round" stroke-linejoin="round" stroke-miterlimit="10" d="M58.536,41.172  l-1.334,39.987L58.536,41.172z"/><path fill="none" stroke="#000000" stroke-linecap="round" stroke-linejoin="round" stroke-miterlimit="10" d="M67.127,40.283  l-2.66,39.903L67.127,40.283z"/><path fill="none" stroke="#000000" stroke-linecap="round" stroke-linejoin="round" stroke-miterlimit="10" d="M41.474,41.172  l1.33,39.987L41.474,41.172z"/><path fill="none" stroke="#000000" stroke-linecap="round" stroke-linejoin="round" stroke-miterlimit="10" d="M32.882,40.283  l2.661,39.903L32.882,40.283z"/><path fill="none" stroke="#000000" stroke-linecap="round" stroke-linejoin="round" stroke-miterlimit="10" d="M60.006,30.872  c-11.62-2.311-21.303-5.707-25.15-8.565c-8.051,1.011-13.423,2.796-13.423,4.839c0,3.157,12.788,5.714,28.566,5.714  c5.855,0,11.293-0.353,15.821-0.956C63.938,31.61,61.993,31.265,60.006,30.872z"/><path fill="none" stroke="#000000" stroke-linecap="round" stroke-linejoin="round" stroke-miterlimit="10" d="M27.143,27.146  v-5.714c0-3.156-2.558-5.714-5.71-5.714h-5.717c-3.153,0-5.714-2.558-5.714-5.714c0,3.156,2.562,5.714,5.714,5.714h5.717  c3.153,0,5.71,2.558,5.71,5.714V27.146z"/><path fill="none" stroke="#000000" stroke-linecap="round" stroke-linejoin="round" stroke-miterlimit="10" d="M30.001,15.714  c0-3.153-2.558-5.714-5.714-5.714C27.444,10,30.001,12.561,30.001,15.714z"/><path fill="none" stroke="#000000" stroke-linecap="round" stroke-linejoin="round" stroke-miterlimit="10" d="M24.288,21.432  c-3.157,0-5.714-2.558-5.714-5.714v-5.714v5.714C18.573,18.874,21.131,21.432,24.288,21.432z"/></svg>